<?xml version="1.0" encoding="UTF-8"?><svg id="Layer_2" xmlns="http://www.w3.org/2000/svg" viewBox="0 0 215.98 75.75"><defs><style>.cls-1{fill:#fff;}.cls-2{fill:#a32422;}.cls-3{fill:#741113;}.cls-4{fill:#ac2724;}.cls-5{fill:#dc382c;}.cls-6{fill:#494c4d;}</style></defs><g id="Layer_1-2"><g><g><path class="cls-2" d="M82.41,58.36c-4.57,2.46-28.29,12.5-33.39,15.26-5.11,2.76-7.84,2.68-11.84,.71-4-1.97-29.15-12.5-33.7-14.74C1.18,58.48,0,57.53,0,56.65v-8.93s32.85-7.34,38.16-9.32c5.3-1.98,7.14-2.03,11.64-.33,4.51,1.7,31.51,6.72,35.97,8.38v8.81c0,.92-1.03,1.81-3.36,3.09h0Z"/><path class="cls-5" d="M82.41,49.47c-4.57,2.45-28.29,12.49-33.39,15.2-5.11,2.71-7.84,2.68-11.84,.72-4-1.96-29.15-12.49-33.7-14.72-4.56-2.23-4.65-3.78-.18-5.58,4.47-1.8,29.56-11.91,34.86-13.9,5.3-1.99,7.14-2.03,11.64-.33,4.51,1.71,28.12,11.36,32.56,13.05,4.43,1.68,4.64,3.06,.05,5.51v.05Z"/><path class="cls-2" d="M82.41,43.81c-4.57,2.45-28.29,12.49-33.39,15.2-5.11,2.71-7.82,2.68-11.82,.71S8.03,47.28,3.47,45.04C1.18,43.92,0,42.98,0,42.09v-8.9s32.85-7.36,38.16-9.34c5.3-1.98,7.14-2.03,11.64-.31,4.51,1.73,31.51,6.7,35.97,8.37v8.81c0,.92-1.03,1.83-3.36,3.1Z"/><path class="cls-5" d="M82.41,34.88c-4.57,2.46-28.29,12.5-33.39,15.21-5.11,2.71-7.84,2.69-11.84,.72-4-1.97-29.15-12.46-33.7-14.7-4.56-2.24-4.64-3.77-.18-5.57,4.46-1.8,29.56-11.94,34.86-13.87,5.3-1.94,7.14-2.06,11.64-.37,4.51,1.68,28.12,11.42,32.56,13.06,4.44,1.63,4.64,3.07,.05,5.51v.02Z"/><path class="cls-2" d="M82.41,28.71c-4.57,2.46-28.29,12.5-33.39,15.21s-7.82,2.68-11.82,.72c-4-1.96-29.17-12.46-33.73-14.7C1.18,28.83,0,27.89,0,26.99v-8.93s32.85-7.34,38.16-9.31c5.3-1.97,7.14-2.03,11.64-.33,4.51,1.7,31.5,6.72,35.96,8.4v8.81c.01,.93-1.01,1.83-3.35,3.09Z"/><path class="cls-5" d="M82.41,19.79c-4.57,2.41-28.29,12.52-33.39,15.2-5.11,2.68-7.84,2.68-11.84,.72-4-1.95-29.15-12.47-33.7-14.7-4.56-2.23-4.65-3.78-.18-5.58C7.77,13.64,32.86,3.51,38.16,1.54c5.3-1.97,7.14-2.03,11.64-.33,4.51,1.7,28.12,11.37,32.56,13.05,4.43,1.68,4.64,3.07,.05,5.51v.02Z"/><path class="cls-1" d="M44.24,7.11l5.66-1.91-1.53,3.78,5.76,2.22-7.42,.8-1.67,4.13-2.68-4.6-8.58-.8,6.41-2.38-1.93-3.66,5.99,2.42Z"/><path class="cls-1" d="M44.6,31.19l-13.87-5.93,19.87-3.14-6,9.07Z"/><path class="cls-1" d="M25.36,13.48c5.86,0,10.62,1.9,10.62,4.22s-4.77,4.22-10.62,4.22-10.63-1.9-10.63-4.22,4.76-4.22,10.63-4.22Z"/><path class="cls-3" d="M62.92,12.32l11.76,4.78-11.75,4.78V12.32Z"/><path class="cls-4" d="M62.92,12.32v9.57s-1.27,.51-1.27,.51l-11.75-4.78,13.02-5.3Z"/><path class="cls-6" d="M113.08,24.98c1.01-1.14,2.26-2.03,3.65-2.62,1.35-.6,2.81-.93,4.28-.97,.53-.05,1.06,.01,1.56,.18,.5,.17,.97,.44,1.37,.79,.3,.3,.53,.65,.68,1.05,.15,.39,.22,.82,.21,1.24,0,.85-.31,1.67-.89,2.29-.28,.32-.62,.57-1,.74-.38,.17-.8,.25-1.21,.24-3.66,.33-8.73,4.08-8.73,9.18v11.57c-.02,.86-.37,1.68-.96,2.28-.59,.61-1.38,.96-2.22,.98-.43,.02-.85-.07-1.24-.24-.39-.17-.74-.44-1.02-.77-.3-.3-.53-.65-.7-1.05-.16-.39-.25-.81-.25-1.24V24.51c0-.43,.09-.85,.25-1.24,.16-.39,.4-.75,.7-1.05,.7-.52,1.53-.8,2.38-.82,.83,.02,1.63,.37,2.22,.97,.59,.61,.93,1.43,.95,2.28l-.02,.32Z"/><path class="cls-6" d="M151.57,35.6c0,.79-.28,1.55-.79,2.14-.61,.58-1.39,.93-2.22,.98h-18.75c.18,1.53,.9,2.94,2.03,3.96,1.45,1.6,3.43,2.59,5.55,2.76,1.07,.19,2.17,.15,3.24-.1s2.06-.72,2.95-1.37c.31-.32,.68-.58,1.09-.75,.41-.17,.85-.25,1.29-.24,.38-.02,.76,.05,1.11,.19,.35,.14,.68,.36,.94,.63,.25,.24,.45,.52,.6,.84,.14,.32,.22,.66,.24,1.01,.01,.35-.04,.7-.16,1.03-.12,.33-.3,.63-.53,.89-.05,.05-.1,.1-.15,.16-1.38,1.32-3.01,2.34-4.77,3.02-1.77,.67-3.65,.98-5.53,.9-1.93,.04-3.85-.34-5.63-1.13-1.78-.79-3.37-1.96-4.66-3.44-2.69-2.92-4.21-6.77-4.28-10.8-.04-2,.32-3.99,1.05-5.85,.74-1.85,1.83-3.53,3.22-4.94,1.27-1.42,2.81-2.55,4.54-3.31,1.72-.76,3.58-1.13,5.46-1.1,1.82-.07,3.64,.26,5.33,.96,1.69,.7,3.22,1.77,4.48,3.13,2.69,2.65,4.29,6.27,4.46,10.1v.32l-.12,.02Zm-14.12-8.66c-1.97,.03-3.87,.79-5.35,2.13-1.26,1.09-2.15,2.57-2.54,4.22h16.66c-.47-1.66-1.48-3.1-2.86-4.08-1.67-1.38-3.72-2.19-5.86-2.3"/><path class="cls-6" d="M181.42,48.33c-.02,.86-.36,1.68-.95,2.28s-1.38,.96-2.22,.98c-.73-.03-1.43-.3-2.01-.77-.57-.47-.98-1.12-1.17-1.85-2.36,1.74-5.2,2.66-8.1,2.62-1.9,.02-3.78-.36-5.52-1.12-1.75-.76-3.32-1.88-4.63-3.29-1.37-1.41-2.44-3.1-3.15-4.95-.71-1.86-1.04-3.84-.98-5.83-.03-4.01,1.45-7.87,4.13-10.78,1.3-1.44,2.87-2.59,4.61-3.38,1.75-.79,3.63-1.2,5.54-1.21,2.85-.04,5.63,.88,7.93,2.62V12.24c-.01-.43,.07-.86,.23-1.25,.16-.39,.41-.75,.72-1.03,.29-.31,.64-.56,1.03-.73,.39-.17,.8-.26,1.22-.26,.42-.01,.83,.07,1.21,.24,.38,.17,.73,.42,1.01,.74,.3,.3,.54,.65,.7,1.04,.16,.39,.25,.81,.25,1.24V48.33h.14Zm-14.27-3.27c1.06,.02,2.1-.2,3.06-.65,.96-.45,1.81-1.12,2.48-1.95,1.52-1.62,2.37-3.78,2.37-6.03s-.85-4.41-2.37-6.03c-.7-.81-1.55-1.46-2.5-1.92-.95-.45-1.99-.7-3.04-.72-1.06-.04-2.11,.18-3.08,.63-.96,.45-1.81,1.13-2.48,1.98-1.52,1.62-2.37,3.78-2.37,6.03s.85,4.41,2.37,6.03c.69,.82,1.54,1.48,2.5,1.93,.96,.45,2,.68,3.05,.68"/><path class="cls-6" d="M190.8,12.24v1.31c.01,.46-.07,.92-.23,1.35-.17,.43-.42,.81-.74,1.14-.29,.3-.64,.53-1.02,.67-.38,.14-.79,.19-1.2,.15-.42,.01-.83-.07-1.21-.23-.38-.17-.72-.42-1-.74-.31-.32-.56-.7-.73-1.12-.16-.42-.24-.87-.23-1.33v-1.21c0-.43,.09-.85,.25-1.24,.16-.39,.4-.75,.7-1.04,.29-.31,.63-.55,1.01-.72,.38-.17,.79-.26,1.2-.26,.42,0,.83,.08,1.21,.25,.38,.17,.73,.43,1.01,.74,.31,.28,.56,.64,.73,1.03s.25,.82,.24,1.25h0Zm-5.35,9.97c.29-.31,.63-.56,1.01-.72,.38-.17,.79-.26,1.21-.26,.42-.01,.83,.07,1.22,.24,.38,.17,.73,.42,1,.75,.3,.32,.54,.7,.69,1.11,.16,.41,.23,.86,.22,1.3v23.89c.02,.43-.05,.87-.22,1.26-.17,.4-.43,.75-.75,1.02-.29,.31-.63,.55-1.01,.72-.38,.17-.79,.26-1.2,.26-.42,.01-.83-.07-1.22-.24-.38-.17-.73-.42-1-.74-.3-.3-.54-.65-.7-1.04-.16-.39-.25-.82-.25-1.24V24.65c-.01-.45,.07-.89,.23-1.31s.41-.79,.72-1.1"/><path class="cls-6" d="M213.31,24.5c.65,.46,1.1,1.16,1.27,1.95,.13,.83,.02,1.68-.32,2.45-.45,.66-1.13,1.13-1.9,1.3-.83,.16-1.68-.02-2.38-.49-2.22-1.47-3.95-2.28-5.39-2.28-1.27-.08-2.52,.32-3.52,1.13-.63,.49-.95,.82-.95,1.15-.04,.28,.01,.58,.16,.82,.18,.2,.4,.37,.63,.49,1.29,.84,2.77,1.34,4.29,1.47h0c1.97,.33,3.89,.94,5.71,1.81,1.6,.69,2.94,1.9,3.81,3.44,.57,.9,.95,1.9,1.14,2.96,.19,1.05,.17,2.14-.05,3.18-.22,1.05-.64,2.04-1.24,2.92-.59,.88-1.35,1.63-2.23,2.2-2.22,1.63-4.89,2.49-7.62,2.45-3.65,0-7.14-1.47-10.47-4.22-.61-.55-1-1.31-1.11-2.13-.05-.61,.07-1.23,.35-1.77,.28-.54,.71-.99,1.23-1.28,.52-.29,1.12-.42,1.71-.37,.59,.05,1.16,.28,1.63,.66,1.75,1.71,4.09,2.65,6.5,2.61,1.41,.05,2.79-.35,3.97-1.15,.63-.65,1.11-1.14,1.11-1.63s0-.65-.16-.81c0-.17-.32-.49-.8-.65-1.45-.92-3.07-1.51-4.76-1.72h0c-1.88-.28-3.71-.89-5.39-1.81-1.54-.77-2.85-1.95-3.81-3.42-.62-1.15-.95-2.44-.94-3.76,0-1.33,.31-2.63,.92-3.8,.61-1.17,1.49-2.17,2.56-2.9,2.15-1.51,4.69-2.31,7.29-2.29,2.67,.17,5.55,1.3,8.72,3.43"/></g><g><path class="cls-6" d="M106.54,64.68h6.22v1.06h-4.92v3.63h3.97v1.06h-3.97v3.87h5.19v1.06h-6.49v-10.67Z"/><path class="cls-6" d="M114.99,64.68h1.69l5.19,8.82v-8.82h1.24v10.67h-1.49l-5.39-9.15v9.15h-1.24v-10.67Z"/><path class="cls-6" d="M125.28,70.08v-.12c0-3.12,2.1-5.45,5.16-5.45,2.12,0,4.01,.98,4.34,3.39h-1.3c-.3-1.7-1.46-2.36-3.01-2.36-2.45,0-3.85,1.79-3.85,4.4v.12c0,2.64,1.31,4.37,3.82,4.37,2.31,0,3.31-1.51,3.36-3.4h-3.12v-1.08h4.39v.79c0,3.09-1.9,4.73-4.63,4.73-3.28,0-5.16-2.28-5.16-5.4Z"/><path class="cls-6" d="M137.32,64.68h1.3v10.67h-1.3v-10.67Z"/><path class="cls-6" d="M141.38,64.68h1.69l5.19,8.82v-8.82h1.24v10.67h-1.49l-5.39-9.15v9.15h-1.24v-10.67Z"/><path class="cls-6" d="M152.19,64.68h6.22v1.06h-4.92v3.63h3.97v1.06h-3.97v3.87h5.19v1.06h-6.49v-10.67Z"/><path class="cls-6" d="M160.64,64.68h6.22v1.06h-4.92v3.63h3.97v1.06h-3.97v3.87h5.19v1.06h-6.49v-10.67Z"/><path class="cls-6" d="M169.09,64.68h3.21c2.04,0,3.73,.84,3.73,2.97v.06c0,1.76-1.18,2.63-2.64,2.91l3.27,4.73h-1.45l-3.18-4.64h-1.64v4.64h-1.3v-10.67Zm3.3,5c1.52,0,2.34-.66,2.34-1.97v-.06c0-1.45-.9-1.92-2.34-1.92h-2v3.95h2Z"/><path class="cls-6" d="M178.55,64.68h1.3v10.67h-1.3v-10.67Z"/><path class="cls-6" d="M182.61,64.68h1.69l5.19,8.82v-8.82h1.24v10.67h-1.49l-5.39-9.15v9.15h-1.24v-10.67Z"/><path class="cls-6" d="M192.89,70.08v-.12c0-3.12,2.1-5.45,5.16-5.45,2.12,0,4.01,.98,4.34,3.39h-1.3c-.3-1.7-1.46-2.36-3.01-2.36-2.45,0-3.85,1.79-3.85,4.4v.12c0,2.64,1.31,4.37,3.82,4.37,2.31,0,3.31-1.51,3.36-3.4h-3.12v-1.08h4.39v.79c0,3.09-1.9,4.73-4.63,4.73-3.28,0-5.16-2.28-5.16-5.4Z"/></g></g></g></svg>