<svg width="512" height="512" viewBox="0 0 512 512" fill="none" xmlns="http://www.w3.org/2000/svg">
  <rect width="512" height="512" fill="white"/>
  <g clip-path="url(#clip0_4_3)">
    <path d="M305.647 489C309.21 440.546 311.535 393.481 316.822 346.793C318.397 332.707 324.659 314.941 334.971 306.902C354.807 291.465 378.506 280.497 401.642 269.98C425.716 259.049 451.027 250.786 479 240.156C346.183 206.313 216.178 173.184 81.0354 138.74C158.131 258.974 231.927 374.025 305.647 488.962V489ZM45 396.186H216.403C186.067 349.009 156.969 303.747 126.108 255.744C98.3969 303.747 72.2234 349.046 45 396.186ZM328.896 176.339L333.508 171.681C308.235 125.368 282.961 79.0176 256.225 29.9624C234.514 67.674 214.303 102.794 192.592 140.543C240.364 153.089 284.649 164.695 328.934 176.302L328.896 176.339ZM410.679 312.837C397.255 319.335 384.355 324.707 372.431 331.768C366.619 335.186 359.719 341.158 358.482 347.056C355.182 362.944 354.695 379.396 353.082 395.698H456.576C440.752 367.151 426.091 340.708 410.641 312.8L410.679 312.837Z" fill="white"/>
    <path d="M305.647 489C231.927 374.062 158.131 259.012 81.0354 138.778C216.178 173.222 346.183 206.351 479 240.194C451.027 250.823 425.716 259.049 401.642 270.017C378.506 280.534 354.77 291.465 334.971 306.94C324.621 314.978 318.397 332.745 316.822 346.83C311.535 393.557 309.21 440.583 305.647 489.038V489Z" fill="#CD162A"/>
    <path d="M45 396.186C72.2234 349.046 98.3594 303.747 126.108 255.744C156.969 303.747 186.067 349.046 216.403 396.186H45Z" fill="#126D9D"/>
    <path d="M328.896 176.339C284.611 164.733 240.326 153.089 192.554 140.581C214.265 102.832 234.477 67.7116 256.188 30C282.961 79.0552 308.197 125.406 333.471 171.719L328.859 176.377L328.896 176.339Z" fill="#126D9D"/>
    <path d="M410.716 312.875C426.166 340.783 440.827 367.226 456.651 395.772H353.157C354.77 379.471 355.257 362.981 358.557 347.13C359.794 341.233 366.694 335.261 372.506 331.843C384.43 324.781 397.33 319.41 410.754 312.912L410.716 312.875Z" fill="#126D9D"/>
  </g>
  <defs>
    <clipPath id="clip0_4_3">
      <rect width="434" height="459" fill="white" transform="translate(45 30)"/>
    </clipPath>
  </defs>
</svg>
